  0
SECTION
  2
BLOCKS
  0
ENDSEC
  0
SECTION
  2
ENTITIES
  0
LINE
  8
0
 10
0
 11
0
 20
0
 21
488
  0
LINE
  8
0
 10
0
 11
388
 20
488
 21
488
  0
LINE
  8
0
 10
388
 11
388
 20
488
 21
0
  0
LINE
  8
0
 10
388
 11
0
 20
0
 21
0
  0
LINE
  8
0
 10
17.5
 11
18.232
 20
10
 21
11.768
  0
LINE
  8
0
 10
18.232
 11
20
 20
11.768
 21
12.5
  0
LINE
  8
0
 10
20
 11
21.768
 20
12.5
 21
11.768
  0
LINE
  8
0
 10
21.768
 11
22.5
 20
11.768
 21
10
  0
LINE
  8
0
 10
22.5
 11
21.768
 20
10
 21
8.232
  0
LINE
  8
0
 10
21.768
 11
20
 20
8.232
 21
7.5
  0
LINE
  8
0
 10
20
 11
18.232
 20
7.5
 21
8.232
  0
LINE
  8
0
 10
18.232
 11
17.5
 20
8.232
 21
10
  0
LINE
  8
0
 10
17.5
 11
18.232
 20
478
 21
479.768
  0
LINE
  8
0
 10
18.232
 11
20
 20
479.768
 21
480.5
  0
LINE
  8
0
 10
20
 11
21.768
 20
480.5
 21
479.768
  0
LINE
  8
0
 10
21.768
 11
22.5
 20
479.768
 21
478
  0
LINE
  8
0
 10
22.5
 11
21.768
 20
478
 21
476.232
  0
LINE
  8
0
 10
21.768
 11
20
 20
476.232
 21
475.5
  0
LINE
  8
0
 10
20
 11
18.232
 20
475.5
 21
476.232
  0
LINE
  8
0
 10
18.232
 11
17.5
 20
476.232
 21
478
  0
LINE
  8
0
 10
30.26
 11
30.26
 20
31.742
 21
92.855
  0
LINE
  8
0
 10
30.26
 11
30.683
 20
92.855
 21
94.125
  0
LINE
  8
0
 10
30.683
 11
31.953
 20
94.125
 21
94.549
  0
LINE
  8
0
 10
31.953
 11
41.715
 20
94.549
 21
94.549
  0
LINE
  8
0
 10
41.715
 11
43.161
 20
94.549
 21
93.852
  0
LINE
  8
0
 10
43.161
 11
63.034
 20
93.852
 21
59.385
  0
LINE
  8
0
 10
63.034
 11
65.773
 20
59.385
 21
53.956
  0
LINE
  8
0
 10
65.773
 11
66.171
 20
53.956
 21
53.956
  0
LINE
  8
0
 10
66.171
 11
64.776
 20
53.956
 21
62.823
  0
LINE
  8
0
 10
64.776
 11
64.228
 20
62.823
 21
72.386
  0
LINE
  8
0
 10
64.228
 11
64.228
 20
72.386
 21
92.855
  0
LINE
  8
0
 10
64.228
 11
64.651
 20
92.855
 21
94.125
  0
LINE
  8
0
 10
64.651
 11
65.921
 20
94.125
 21
94.549
  0
LINE
  8
0
 10
65.921
 11
76.481
 20
94.549
 21
94.549
  0
LINE
  8
0
 10
76.481
 11
77.751
 20
94.549
 21
94.125
  0
LINE
  8
0
 10
77.751
 11
78.174
 20
94.125
 21
92.855
  0
LINE
  8
0
 10
78.174
 11
78.174
 20
92.855
 21
31.742
  0
LINE
  8
0
 10
78.174
 11
77.751
 20
31.742
 21
30.472
  0
LINE
  8
0
 10
77.751
 11
76.481
 20
30.472
 21
30.049
  0
LINE
  8
0
 10
76.481
 11
66.819
 20
30.049
 21
30.049
  0
LINE
  8
0
 10
66.819
 11
65.324
 20
30.049
 21
30.847
  0
LINE
  8
0
 10
65.324
 11
45.201
 20
30.847
 21
64.016
  0
LINE
  8
0
 10
45.201
 11
43.11
 20
64.016
 21
68.4
  0
LINE
  8
0
 10
43.11
 11
42.712
 20
68.4
 21
68.4
  0
LINE
  8
0
 10
42.712
 11
43.758
 20
68.4
 21
61.527
  0
LINE
  8
0
 10
43.758
 11
44.207
 20
61.527
 21
52.112
  0
LINE
  8
0
 10
44.207
 11
44.207
 20
52.112
 21
31.742
  0
LINE
  8
0
 10
44.207
 11
43.783
 20
31.742
 21
30.472
  0
LINE
  8
0
 10
43.783
 11
42.513
 20
30.472
 21
30.049
  0
LINE
  8
0
 10
42.513
 11
31.953
 20
30.049
 21
30.049
  0
LINE
  8
0
 10
31.953
 11
30.683
 20
30.049
 21
30.472
  0
LINE
  8
0
 10
30.683
 11
30.26
 20
30.472
 21
31.742
  0
LINE
  8
0
 10
32.706
 11
34.185
 20
294.167
 21
316.152
  0
LINE
  8
0
 10
34.185
 11
38.495
 20
316.152
 21
337.239
  0
LINE
  8
0
 10
38.495
 11
45.442
 20
337.239
 21
357.234
  0
LINE
  8
0
 10
45.442
 11
54.833
 20
357.234
 21
375.944
  0
LINE
  8
0
 10
54.833
 11
66.474
 20
375.944
 21
393.175
  0
LINE
  8
0
 10
66.474
 11
80.174
 20
393.175
 21
408.736
  0
LINE
  8
0
 10
80.174
 11
95.737
 20
408.736
 21
422.433
  0
LINE
  8
0
 10
95.737
 11
112.973
 20
422.433
 21
434.072
  0
LINE
  8
0
 10
112.973
 11
131.687
 20
434.072
 21
443.461
  0
LINE
  8
0
 10
131.687
 11
151.686
 20
443.461
 21
450.406
  0
LINE
  8
0
 10
151.686
 11
172.777
 20
450.406
 21
454.715
  0
LINE
  8
0
 10
172.777
 11
194.767
 20
454.715
 21
456.194
  0
LINE
  8
0
 10
194.767
 11
216.757
 20
456.194
 21
454.715
  0
LINE
  8
0
 10
216.757
 11
237.848
 20
454.715
 21
450.406
  0
LINE
  8
0
 10
237.848
 11
257.847
 20
450.406
 21
443.461
  0
LINE
  8
0
 10
257.847
 11
276.561
 20
443.461
 21
434.072
  0
LINE
  8
0
 10
276.561
 11
293.797
 20
434.072
 21
422.433
  0
LINE
  8
0
 10
293.797
 11
309.361
 20
422.433
 21
408.736
  0
LINE
  8
0
 10
309.361
 11
323.06
 20
408.736
 21
393.175
  0
LINE
  8
0
 10
323.06
 11
334.702
 20
393.175
 21
375.944
  0
LINE
  8
0
 10
334.702
 11
344.092
 20
375.944
 21
357.234
  0
LINE
  8
0
 10
344.092
 11
351.039
 20
357.234
 21
337.239
  0
LINE
  8
0
 10
351.039
 11
355.349
 20
337.239
 21
316.152
  0
LINE
  8
0
 10
355.349
 11
356.828
 20
316.152
 21
294.167
  0
LINE
  8
0
 10
356.828
 11
355.349
 20
294.167
 21
272.181
  0
LINE
  8
0
 10
355.349
 11
351.039
 20
272.181
 21
251.095
  0
LINE
  8
0
 10
351.039
 11
344.092
 20
251.095
 21
231.1
  0
LINE
  8
0
 10
344.092
 11
334.702
 20
231.1
 21
212.39
  0
LINE
  8
0
 10
334.702
 11
323.06
 20
212.39
 21
195.158
  0
LINE
  8
0
 10
323.06
 11
309.361
 20
195.158
 21
179.598
  0
LINE
  8
0
 10
309.361
 11
293.797
 20
179.598
 21
165.901
  0
LINE
  8
0
 10
293.797
 11
276.561
 20
165.901
 21
154.262
  0
LINE
  8
0
 10
276.561
 11
257.847
 20
154.262
 21
144.873
  0
LINE
  8
0
 10
257.847
 11
237.848
 20
144.873
 21
137.928
  0
LINE
  8
0
 10
237.848
 11
216.757
 20
137.928
 21
133.619
  0
LINE
  8
0
 10
216.757
 11
194.767
 20
133.619
 21
132.14
  0
LINE
  8
0
 10
194.767
 11
172.777
 20
132.14
 21
133.619
  0
LINE
  8
0
 10
172.777
 11
151.686
 20
133.619
 21
137.928
  0
LINE
  8
0
 10
151.686
 11
131.687
 20
137.928
 21
144.873
  0
LINE
  8
0
 10
131.687
 11
112.973
 20
144.873
 21
154.262
  0
LINE
  8
0
 10
112.973
 11
95.737
 20
154.262
 21
165.901
  0
LINE
  8
0
 10
95.737
 11
80.174
 20
165.901
 21
179.598
  0
LINE
  8
0
 10
80.174
 11
66.474
 20
179.598
 21
195.158
  0
LINE
  8
0
 10
66.474
 11
54.833
 20
195.158
 21
212.39
  0
LINE
  8
0
 10
54.833
 11
45.442
 20
212.39
 21
231.1
  0
LINE
  8
0
 10
45.442
 11
38.495
 20
231.1
 21
251.095
  0
LINE
  8
0
 10
38.495
 11
34.185
 20
251.095
 21
272.181
  0
LINE
  8
0
 10
34.185
 11
32.706
 20
272.181
 21
294.167
  0
LINE
  8
0
 10
54.912
 11
56.189
 20
294.167
 21
313.137
  0
LINE
  8
0
 10
56.189
 11
59.909
 20
313.137
 21
331.333
  0
LINE
  8
0
 10
59.909
 11
65.905
 20
331.333
 21
348.587
  0
LINE
  8
0
 10
65.905
 11
74.009
 20
348.587
 21
364.733
  0
LINE
  8
0
 10
74.009
 11
84.057
 20
364.733
 21
379.604
  0
LINE
  8
0
 10
84.057
 11
95.88
 20
379.604
 21
393.033
  0
LINE
  8
0
 10
95.88
 11
109.312
 20
393.033
 21
404.854
  0
LINE
  8
0
 10
109.312
 11
124.186
 20
404.854
 21
414.899
  0
LINE
  8
0
 10
124.186
 11
140.335
 20
414.899
 21
423.002
  0
LINE
  8
0
 10
140.335
 11
157.593
 20
423.002
 21
428.997
  0
LINE
  8
0
 10
157.593
 11
175.793
 20
428.997
 21
432.715
  0
LINE
  8
0
 10
175.793
 11
194.767
 20
432.715
 21
433.992
  0
LINE
  8
0
 10
194.767
 11
213.74
 20
433.992
 21
432.715
  0
LINE
  8
0
 10
213.74
 11
231.937
 20
432.715
 21
428.997
  0
LINE
  8
0
 10
231.937
 11
249.191
 20
428.997
 21
423.002
  0
LINE
  8
0
 10
249.191
 11
265.335
 20
423.002
 21
414.899
  0
LINE
  8
0
 10
265.335
 11
280.203
 20
414.899
 21
404.854
  0
LINE
  8
0
 10
280.203
 11
293.629
 20
404.854
 21
393.033
  0
LINE
  8
0
 10
293.629
 11
305.446
 20
393.033
 21
379.604
  0
LINE
  8
0
 10
305.446
 11
315.488
 20
379.604
 21
364.733
  0
LINE
  8
0
 10
315.488
 11
323.587
 20
364.733
 21
348.587
  0
LINE
  8
0
 10
323.587
 11
329.579
 20
348.587
 21
331.333
  0
LINE
  8
0
 10
329.579
 11
333.296
 20
331.333
 21
313.137
  0
LINE
  8
0
 10
333.296
 11
334.572
 20
313.137
 21
294.167
  0
LINE
  8
0
 10
334.572
 11
333.296
 20
294.167
 21
275.197
  0
LINE
  8
0
 10
333.296
 11
329.579
 20
275.197
 21
257.004
  0
LINE
  8
0
 10
329.579
 11
323.587
 20
257.004
 21
239.754
  0
LINE
  8
0
 10
323.587
 11
315.487
 20
239.754
 21
223.613
  0
LINE
  8
0
 10
315.487
 11
305.446
 20
223.613
 21
208.749
  0
LINE
  8
0
 10
305.446
 11
293.629
 20
208.749
 21
195.325
  0
LINE
  8
0
 10
293.629
 11
280.203
 20
195.325
 21
183.511
  0
LINE
  8
0
 10
280.203
 11
265.335
 20
183.511
 21
173.472
  0
LINE
  8
0
 10
265.335
 11
249.191
 20
173.472
 21
165.374
  0
LINE
  8
0
 10
249.191
 11
231.937
 20
165.374
 21
159.383
  0
LINE
  8
0
 10
231.937
 11
213.74
 20
159.383
 21
155.667
  0
LINE
  8
0
 10
213.74
 11
194.767
 20
155.667
 21
154.391
  0
LINE
  8
0
 10
194.767
 11
175.81
 20
154.391
 21
155.732
  0
LINE
  8
0
 10
175.81
 11
157.663
 20
155.732
 21
159.826
  0
LINE
  8
0
 10
157.663
 11
140.481
 20
159.826
 21
166.411
  0
LINE
  8
0
 10
140.481
 11
124.42
 20
166.411
 21
175.22
  0
LINE
  8
0
 10
124.42
 11
109.634
 20
175.22
 21
185.993
  0
LINE
  8
0
 10
109.634
 11
96.28
 20
185.993
 21
198.462
  0
LINE
  8
0
 10
96.28
 11
84.513
 20
198.462
 21
212.367
  0
LINE
  8
0
 10
84.513
 11
74.487
 20
212.367
 21
227.442
  0
LINE
  8
0
 10
74.487
 11
66.359
 20
227.442
 21
243.423
  0
LINE
  8
0
 10
66.359
 11
60.284
 20
243.423
 21
260.047
  0
LINE
  8
0
 10
60.284
 11
56.416
 20
260.047
 21
277.049
  0
LINE
  8
0
 10
56.416
 11
54.912
 20
277.049
 21
294.167
  0
LINE
  8
0
 10
93.144
 11
106.435
 20
269.119
 21
269.119
  0
LINE
  8
0
 10
106.435
 11
106.861
 20
269.119
 21
262.809
  0
LINE
  8
0
 10
106.861
 11
108.099
 20
262.809
 21
256.757
  0
LINE
  8
0
 10
108.099
 11
110.096
 20
256.757
 21
251.02
  0
LINE
  8
0
 10
110.096
 11
112.794
 20
251.02
 21
245.652
  0
LINE
  8
0
 10
112.794
 11
116.139
 20
245.652
 21
240.709
  0
LINE
  8
0
 10
116.139
 11
120.075
 20
240.709
 21
236.245
  0
LINE
  8
0
 10
120.075
 11
124.546
 20
236.245
 21
232.316
  0
LINE
  8
0
 10
124.546
 11
129.497
 20
232.316
 21
228.978
  0
LINE
  8
0
 10
129.497
 11
134.871
 20
228.978
 21
226.285
  0
LINE
  8
0
 10
134.871
 11
140.614
 20
226.285
 21
224.293
  0
LINE
  8
0
 10
140.614
 11
146.67
 20
224.293
 21
223.058
  0
LINE
  8
0
 10
146.67
 11
152.982
 20
223.058
 21
222.633
  0
LINE
  8
0
 10
152.982
 11
159.293
 20
222.633
 21
223.058
  0
LINE
  8
0
 10
159.293
 11
165.346
 20
223.058
 21
224.293
  0
LINE
  8
0
 10
165.346
 11
171.084
 20
224.293
 21
226.285
  0
LINE
  8
0
 10
171.084
 11
176.454
 20
226.285
 21
228.978
  0
LINE
  8
0
 10
176.454
 11
181.398
 20
228.978
 21
232.316
  0
LINE
  8
0
 10
181.398
 11
185.863
 20
232.316
 21
236.245
  0
LINE
  8
0
 10
185.863
 11
189.792
 20
236.245
 21
240.709
  0
LINE
  8
0
 10
189.792
 11
193.131
 20
240.709
 21
245.652
  0
LINE
  8
0
 10
193.131
 11
195.825
 20
245.652
 21
251.02
  0
LINE
  8
0
 10
195.825
 11
197.817
 20
251.02
 21
256.757
  0
LINE
  8
0
 10
197.817
 11
199.053
 20
256.757
 21
262.809
  0
LINE
  8
0
 10
199.053
 11
199.477
 20
262.809
 21
269.119
  0
LINE
  8
0
 10
199.477
 11
199.053
 20
269.119
 21
275.43
  0
LINE
  8
0
 10
199.053
 11
197.817
 20
275.43
 21
281.484
  0
LINE
  8
0
 10
197.817
 11
195.825
 20
281.484
 21
287.225
  0
LINE
  8
0
 10
195.825
 11
193.131
 20
287.225
 21
292.599
  0
LINE
  8
0
 10
193.131
 11
189.792
 20
292.599
 21
297.548
  0
LINE
  8
0
 10
189.792
 11
185.863
 20
297.548
 21
302.019
  0
LINE
  8
0
 10
185.863
 11
181.398
 20
302.019
 21
305.954
  0
LINE
  8
0
 10
181.398
 11
176.454
 20
305.954
 21
309.298
  0
LINE
  8
0
 10
176.454
 11
171.084
 20
309.298
 21
311.996
  0
LINE
  8
0
 10
171.084
 11
165.346
 20
311.996
 21
313.992
  0
LINE
  8
0
 10
165.346
 11
159.293
 20
313.992
 21
315.23
  0
LINE
  8
0
 10
159.293
 11
152.982
 20
315.23
 21
315.656
  0
LINE
  8
0
 10
152.982
 11
136.897
 20
315.656
 21
315.656
  0
LINE
  8
0
 10
136.897
 11
139.949
 20
315.656
 21
318.693
  0
LINE
  8
0
 10
139.949
 11
143
 20
318.693
 21
321.732
  0
LINE
  8
0
 10
143
 11
146.049
 20
321.732
 21
324.771
  0
LINE
  8
0
 10
146.049
 11
149.098
 20
324.771
 21
327.812
  0
LINE
  8
0
 10
149.098
 11
152.147
 20
327.812
 21
330.852
  0
LINE
  8
0
 10
152.147
 11
155.194
 20
330.852
 21
333.894
  0
LINE
  8
0
 10
155.194
 11
158.241
 20
333.894
 21
336.937
  0
LINE
  8
0
 10
158.241
 11
161.287
 20
336.937
 21
339.98
  0
LINE
  8
0
 10
161.287
 11
164.332
 20
339.98
 21
343.024
  0
LINE
  8
0
 10
164.332
 11
167.376
 20
343.024
 21
346.069
  0
LINE
  8
0
 10
167.376
 11
170.42
 20
346.069
 21
349.115
  0
LINE
  8
0
 10
170.42
 11
173.463
 20
349.115
 21
352.161
  0
LINE
  8
0
 10
173.463
 11
113.107
 20
352.161
 21
352.161
  0
LINE
  8
0
 10
113.107
 11
113.107
 20
352.161
 21
365.45
  0
LINE
  8
0
 10
113.107
 11
205.58
 20
365.45
 21
365.45
  0
LINE
  8
0
 10
205.58
 11
202.147
 20
365.45
 21
362.022
  0
LINE
  8
0
 10
202.147
 11
198.315
 20
362.022
 21
358.197
  0
LINE
  8
0
 10
198.315
 11
194.218
 20
358.197
 21
354.106
  0
LINE
  8
0
 10
194.218
 11
189.988
 20
354.106
 21
349.882
  0
LINE
  8
0
 10
189.988
 11
185.757
 20
349.882
 21
345.658
  0
LINE
  8
0
 10
185.757
 11
181.66
 20
345.658
 21
341.568
  0
LINE
  8
0
 10
181.66
 11
177.828
 20
341.568
 21
337.742
  0
LINE
  8
0
 10
177.828
 11
174.395
 20
337.742
 21
334.314
  0
LINE
  8
0
 10
174.395
 11
171.494
 20
334.314
 21
331.418
  0
LINE
  8
0
 10
171.494
 11
169.257
 20
331.418
 21
329.184
  0
LINE
  8
0
 10
169.257
 11
167.817
 20
329.184
 21
327.747
  0
LINE
  8
0
 10
167.817
 11
167.308
 20
327.747
 21
327.238
  0
LINE
  8
0
 10
167.308
 11
173.687
 20
327.238
 21
325.281
  0
LINE
  8
0
 10
173.687
 11
179.74
 20
325.281
 21
322.652
  0
LINE
  8
0
 10
179.74
 11
185.425
 20
322.652
 21
319.396
  0
LINE
  8
0
 10
185.425
 11
190.697
 20
319.396
 21
315.556
  0
LINE
  8
0
 10
190.697
 11
195.513
 20
315.556
 21
311.176
  0
LINE
  8
0
 10
195.513
 11
199.828
 20
311.176
 21
306.301
  0
LINE
  8
0
 10
199.828
 11
203.6
 20
306.301
 21
300.975
  0
LINE
  8
0
 10
203.6
 11
206.784
 20
300.975
 21
295.241
  0
LINE
  8
0
 10
206.784
 11
209.337
 20
295.241
 21
289.145
  0
LINE
  8
0
 10
209.337
 11
211.214
 20
289.145
 21
282.729
  0
LINE
  8
0
 10
211.214
 11
212.373
 20
282.729
 21
276.039
  0
LINE
  8
0
 10
212.373
 11
212.769
 20
276.039
 21
269.119
  0
LINE
  8
0
 10
212.769
 11
212.223
 20
269.119
 21
261.005
  0
LINE
  8
0
 10
212.223
 11
210.634
 20
261.005
 21
253.225
  0
LINE
  8
0
 10
210.634
 11
208.072
 20
253.225
 21
245.848
  0
LINE
  8
0
 10
208.072
 11
204.608
 20
245.848
 21
238.945
  0
LINE
  8
0
 10
204.608
 11
200.314
 20
238.945
 21
232.589
  0
LINE
  8
0
 10
200.314
 11
195.261
 20
232.589
 21
226.849
  0
LINE
  8
0
 10
195.261
 11
189.52
 20
226.849
 21
221.796
  0
LINE
  8
0
 10
189.52
 11
183.162
 20
221.796
 21
217.504
  0
LINE
  8
0
 10
183.162
 11
176.258
 20
217.504
 21
214.04
  0
LINE
  8
0
 10
176.258
 11
168.879
 20
214.04
 21
211.479
  0
LINE
  8
0
 10
168.879
 11
161.097
 20
211.479
 21
209.89
  0
LINE
  8
0
 10
161.097
 11
152.982
 20
209.89
 21
209.345
  0
LINE
  8
0
 10
152.982
 11
144.866
 20
209.345
 21
209.89
  0
LINE
  8
0
 10
144.866
 11
137.081
 20
209.89
 21
211.479
  0
LINE
  8
0
 10
137.081
 11
129.698
 20
211.479
 21
214.04
  0
LINE
  8
0
 10
129.698
 11
122.789
 20
214.04
 21
217.504
  0
LINE
  8
0
 10
122.789
 11
116.425
 20
217.504
 21
221.796
  0
LINE
  8
0
 10
116.425
 11
110.677
 20
221.796
 21
226.849
  0
LINE
  8
0
 10
110.677
 11
105.617
 20
226.849
 21
232.589
  0
LINE
  8
0
 10
105.617
 11
101.318
 20
232.589
 21
238.945
  0
LINE
  8
0
 10
101.318
 11
97.849
 20
238.945
 21
245.848
  0
LINE
  8
0
 10
97.849
 11
95.282
 20
245.848
 21
253.225
  0
LINE
  8
0
 10
95.282
 11
93.69
 20
253.225
 21
261.005
  0
LINE
  8
0
 10
93.69
 11
93.144
 20
261.005
 21
269.119
  0
LINE
  8
0
 10
94.212
 11
94.212
 20
31.742
 21
92.358
  0
LINE
  8
0
 10
94.212
 11
94.635
 20
92.358
 21
93.628
  0
LINE
  8
0
 10
94.635
 11
95.905
 20
93.628
 21
94.051
  0
LINE
  8
0
 10
95.905
 11
134.855
 20
94.051
 21
94.051
  0
LINE
  8
0
 10
134.855
 11
136.125
 20
94.051
 21
93.628
  0
LINE
  8
0
 10
136.125
 11
136.549
 20
93.628
 21
92.358
  0
LINE
  8
0
 10
136.549
 11
136.549
 20
92.358
 21
83.043
  0
LINE
  8
0
 10
136.549
 11
136.125
 20
83.043
 21
81.773
  0
LINE
  8
0
 10
136.125
 11
134.855
 20
81.773
 21
81.349
  0
LINE
  8
0
 10
134.855
 11
109.852
 20
81.349
 21
81.349
  0
LINE
  8
0
 10
109.852
 11
108.582
 20
81.349
 21
80.926
  0
LINE
  8
0
 10
108.582
 11
108.158
 20
80.926
 21
79.656
  0
LINE
  8
0
 10
108.158
 11
108.158
 20
79.656
 21
70.343
  0
LINE
  8
0
 10
108.158
 11
108.582
 20
70.343
 21
69.073
  0
LINE
  8
0
 10
108.582
 11
109.852
 20
69.073
 21
68.65
  0
LINE
  8
0
 10
109.852
 11
130.372
 20
68.65
 21
68.65
  0
LINE
  8
0
 10
130.372
 11
131.642
 20
68.65
 21
68.226
  0
LINE
  8
0
 10
131.642
 11
132.066
 20
68.226
 21
66.956
  0
LINE
  8
0
 10
132.066
 11
132.066
 20
66.956
 21
57.641
  0
LINE
  8
0
 10
132.066
 11
131.642
 20
57.641
 21
56.371
  0
LINE
  8
0
 10
131.642
 11
130.372
 20
56.371
 21
55.948
  0
LINE
  8
0
 10
130.372
 11
109.852
 20
55.948
 21
55.948
  0
LINE
  8
0
 10
109.852
 11
108.582
 20
55.948
 21
55.524
  0
LINE
  8
0
 10
108.582
 11
108.158
 20
55.524
 21
54.254
  0
LINE
  8
0
 10
108.158
 11
108.158
 20
54.254
 21
44.444
  0
LINE
  8
0
 10
108.158
 11
108.582
 20
44.444
 21
43.174
  0
LINE
  8
0
 10
108.582
 11
109.852
 20
43.174
 21
42.751
  0
LINE
  8
0
 10
109.852
 11
134.855
 20
42.751
 21
42.751
  0
LINE
  8
0
 10
134.855
 11
136.125
 20
42.751
 21
42.327
  0
LINE
  8
0
 10
136.125
 11
136.549
 20
42.327
 21
41.058
  0
LINE
  8
0
 10
136.549
 11
136.549
 20
41.058
 21
31.742
  0
LINE
  8
0
 10
136.549
 11
136.125
 20
31.742
 21
30.472
  0
LINE
  8
0
 10
136.125
 11
134.855
 20
30.472
 21
30.049
  0
LINE
  8
0
 10
134.855
 11
95.905
 20
30.049
 21
30.049
  0
LINE
  8
0
 10
95.905
 11
94.635
 20
30.049
 21
30.472
  0
LINE
  8
0
 10
94.635
 11
94.212
 20
30.472
 21
31.742
  0
LINE
  8
0
 10
116.417
 11
116.614
 20
268.415
 21
272.238
  0
LINE
  8
0
 10
116.614
 11
117.193
 20
272.238
 21
275.946
  0
LINE
  8
0
 10
117.193
 11
118.133
 20
275.946
 21
279.52
  0
LINE
  8
0
 10
118.133
 11
119.415
 20
279.52
 21
282.942
  0
LINE
  8
0
 10
119.415
 11
121.019
 20
282.942
 21
286.19
  0
LINE
  8
0
 10
121.019
 11
122.927
 20
286.19
 21
289.246
  0
LINE
  8
0
 10
122.927
 11
125.118
 20
289.246
 21
292.09
  0
LINE
  8
0
 10
125.118
 11
127.573
 20
292.09
 21
294.702
  0
LINE
  8
0
 10
127.573
 11
130.272
 20
294.702
 21
297.062
  0
LINE
  8
0
 10
130.272
 11
133.196
 20
297.062
 21
299.152
  0
LINE
  8
0
 10
133.196
 11
136.324
 20
299.152
 21
300.95
  0
LINE
  8
0
 10
136.324
 11
139.639
 20
300.95
 21
302.439
  0
LINE
  8
0
 10
139.639
 11
139.639
 20
302.439
 21
287.444
  0
LINE
  8
0
 10
139.639
 11
138.183
 20
287.444
 21
286.339
  0
LINE
  8
0
 10
138.183
 11
136.819
 20
286.339
 21
285.126
  0
LINE
  8
0
 10
136.819
 11
135.555
 20
285.126
 21
283.811
  0
LINE
  8
0
 10
135.555
 11
134.397
 20
283.811
 21
282.4
  0
LINE
  8
0
 10
134.397
 11
133.351
 20
282.4
 21
280.9
  0
LINE
  8
0
 10
133.351
 11
132.423
 20
280.9
 21
279.316
  0
LINE
  8
0
 10
132.423
 11
131.621
 20
279.316
 21
277.655
  0
LINE
  8
0
 10
131.621
 11
130.95
 20
277.655
 21
275.924
  0
LINE
  8
0
 10
130.95
 11
130.416
 20
275.924
 21
274.128
  0
LINE
  8
0
 10
130.416
 11
130.028
 20
274.128
 21
272.274
  0
LINE
  8
0
 10
130.028
 11
129.789
 20
272.274
 21
270.367
  0
LINE
  8
0
 10
129.789
 11
129.709
 20
270.367
 21
268.415
  0
LINE
  8
0
 10
129.709
 11
129.92
 20
268.415
 21
265.26
  0
LINE
  8
0
 10
129.92
 11
130.537
 20
265.26
 21
262.233
  0
LINE
  8
0
 10
130.537
 11
131.531
 20
262.233
 21
259.362
  0
LINE
  8
0
 10
131.531
 11
132.875
 20
259.362
 21
256.675
  0
LINE
  8
0
 10
132.875
 11
134.541
 20
256.675
 21
254.2
  0
LINE
  8
0
 10
134.541
 11
136.503
 20
254.2
 21
251.965
  0
LINE
  8
0
 10
136.503
 11
138.732
 20
251.965
 21
249.998
  0
LINE
  8
0
 10
138.732
 11
141.201
 20
249.998
 21
248.326
  0
LINE
  8
0
 10
141.201
 11
143.883
 20
248.326
 21
246.977
  0
LINE
  8
0
 10
143.883
 11
146.75
 20
246.977
 21
245.979
  0
LINE
  8
0
 10
146.75
 11
149.775
 20
245.979
 21
245.359
  0
LINE
  8
0
 10
149.775
 11
152.93
 20
245.359
 21
245.147
  0
LINE
  8
0
 10
152.93
 11
156.086
 20
245.147
 21
245.359
  0
LINE
  8
0
 10
156.086
 11
159.114
 20
245.359
 21
245.979
  0
LINE
  8
0
 10
159.114
 11
161.986
 20
245.979
 21
246.977
  0
LINE
  8
0
 10
161.986
 11
164.673
 20
246.977
 21
248.326
  0
LINE
  8
0
 10
164.673
 11
167.148
 20
248.326
 21
249.998
  0
LINE
  8
0
 10
167.148
 11
169.384
 20
249.998
 21
251.965
  0
LINE
  8
0
 10
169.384
 11
171.352
 20
251.965
 21
254.2
  0
LINE
  8
0
 10
171.352
 11
173.024
 20
254.2
 21
256.675
  0
LINE
  8
0
 10
173.024
 11
174.373
 20
256.675
 21
259.362
  0
LINE
  8
0
 10
174.373
 11
175.372
 20
259.362
 21
262.233
  0
LINE
  8
0
 10
175.372
 11
175.991
 20
262.233
 21
265.26
  0
LINE
  8
0
 10
175.991
 11
176.204
 20
265.26
 21
268.415
  0
LINE
  8
0
 10
176.204
 11
176.123
 20
268.415
 21
270.37
  0
LINE
  8
0
 10
176.123
 11
175.883
 20
270.37
 21
272.278
  0
LINE
  8
0
 10
175.883
 11
175.493
 20
272.278
 21
274.134
  0
LINE
  8
0
 10
175.493
 11
174.957
 20
274.134
 21
275.93
  0
LINE
  8
0
 10
174.957
 11
174.282
 20
275.93
 21
277.662
  0
LINE
  8
0
 10
174.282
 11
173.475
 20
277.662
 21
279.322
  0
LINE
  8
0
 10
173.475
 11
172.543
 20
279.322
 21
280.905
  0
LINE
  8
0
 10
172.543
 11
171.492
 20
280.905
 21
282.404
  0
LINE
  8
0
 10
171.492
 11
170.327
 20
282.404
 21
283.814
  0
LINE
  8
0
 10
170.327
 11
169.057
 20
283.814
 21
285.128
  0
LINE
  8
0
 10
169.057
 11
167.686
 20
285.128
 21
286.34
  0
LINE
  8
0
 10
167.686
 11
166.222
 20
286.34
 21
287.444
  0
LINE
  8
0
 10
166.222
 11
166.222
 20
287.444
 21
302.439
  0
LINE
  8
0
 10
166.222
 11
169.54
 20
302.439
 21
300.95
  0
LINE
  8
0
 10
169.54
 11
172.674
 20
300.95
 21
299.152
  0
LINE
  8
0
 10
172.674
 11
175.603
 20
299.152
 21
297.062
  0
LINE
  8
0
 10
175.603
 11
178.308
 20
297.062
 21
294.702
  0
LINE
  8
0
 10
178.308
 11
180.768
 20
294.702
 21
292.09
  0
LINE
  8
0
 10
180.768
 11
182.965
 20
292.09
 21
289.246
  0
LINE
  8
0
 10
182.965
 11
184.878
 20
289.246
 21
286.19
  0
LINE
  8
0
 10
184.878
 11
186.487
 20
286.19
 21
282.942
  0
LINE
  8
0
 10
186.487
 11
187.774
 20
282.942
 21
279.52
  0
LINE
  8
0
 10
187.774
 11
188.717
 20
279.52
 21
275.946
  0
LINE
  8
0
 10
188.717
 11
189.297
 20
275.946
 21
272.238
  0
LINE
  8
0
 10
189.297
 11
189.495
 20
272.238
 21
268.415
  0
LINE
  8
0
 10
189.495
 11
189.161
 20
268.415
 21
263.457
  0
LINE
  8
0
 10
189.161
 11
188.188
 20
263.457
 21
258.7
  0
LINE
  8
0
 10
188.188
 11
186.62
 20
258.7
 21
254.19
  0
LINE
  8
0
 10
186.62
 11
184.501
 20
254.19
 21
249.968
  0
LINE
  8
0
 10
184.501
 11
181.874
 20
249.968
 21
246.08
  0
LINE
  8
0
 10
181.874
 11
178.782
 20
246.08
 21
242.569
  0
LINE
  8
0
 10
178.782
 11
175.27
 20
242.569
 21
239.478
  0
LINE
  8
0
 10
175.27
 11
171.381
 20
239.478
 21
236.851
  0
LINE
  8
0
 10
171.381
 11
167.159
 20
236.851
 21
234.732
  0
LINE
  8
0
 10
167.159
 11
162.647
 20
234.732
 21
233.165
  0
LINE
  8
0
 10
162.647
 11
157.89
 20
233.165
 21
232.192
  0
LINE
  8
0
 10
157.89
 11
152.93
 20
232.192
 21
231.858
  0
LINE
  8
0
 10
152.93
 11
147.972
 20
231.858
 21
232.192
  0
LINE
  8
0
 10
147.972
 11
143.217
 20
232.192
 21
233.165
  0
LINE
  8
0
 10
143.217
 11
138.71
 20
233.165
 21
234.732
  0
LINE
  8
0
 10
138.71
 11
134.493
 20
234.732
 21
236.851
  0
LINE
  8
0
 10
134.493
 11
130.61
 20
236.851
 21
239.478
  0
LINE
  8
0
 10
130.61
 11
127.105
 20
239.478
 21
242.569
  0
LINE
  8
0
 10
127.105
 11
124.02
 20
242.569
 21
246.08
  0
LINE
  8
0
 10
124.02
 11
121.398
 20
246.08
 21
249.968
  0
LINE
  8
0
 10
121.398
 11
119.284
 20
249.968
 21
254.19
  0
LINE
  8
0
 10
119.284
 11
117.72
 20
254.19
 21
258.7
  0
LINE
  8
0
 10
117.72
 11
116.75
 20
258.7
 21
263.457
  0
LINE
  8
0
 10
116.75
 11
116.417
 20
263.457
 21
268.415
  0
LINE
  8
0
 10
146.31
 11
146.31
 20
268.415
 21
308.23
  0
LINE
  8
0
 10
146.31
 11
159.602
 20
308.23
 21
308.23
  0
LINE
  8
0
 10
159.602
 11
159.602
 20
308.23
 21
268.415
  0
LINE
  8
0
 10
159.602
 11
159.541
 20
268.415
 21
267.513
  0
LINE
  8
0
 10
159.541
 11
159.363
 20
267.513
 21
266.647
  0
LINE
  8
0
 10
159.363
 11
159.076
 20
266.647
 21
265.825
  0
LINE
  8
0
 10
159.076
 11
158.688
 20
265.825
 21
265.055
  0
LINE
  8
0
 10
158.688
 11
158.207
 20
265.055
 21
264.346
  0
LINE
  8
0
 10
158.207
 11
157.643
 20
264.346
 21
263.704
  0
LINE
  8
0
 10
157.643
 11
157.001
 20
263.704
 21
263.139
  0
LINE
  8
0
 10
157.001
 11
156.291
 20
263.139
 21
262.659
  0
LINE
  8
0
 10
156.291
 11
155.521
 20
262.659
 21
262.271
  0
LINE
  8
0
 10
155.521
 11
154.699
 20
262.271
 21
261.984
  0
LINE
  8
0
 10
154.699
 11
153.833
 20
261.984
 21
261.806
  0
LINE
  8
0
 10
153.833
 11
152.93
 20
261.806
 21
261.745
  0
LINE
  8
0
 10
152.93
 11
152.029
 20
261.745
 21
261.806
  0
LINE
  8
0
 10
152.029
 11
151.166
 20
261.806
 21
261.984
  0
LINE
  8
0
 10
151.166
 11
150.348
 20
261.984
 21
262.271
  0
LINE
  8
0
 10
150.348
 11
149.583
 20
262.271
 21
262.659
  0
LINE
  8
0
 10
149.583
 11
148.879
 20
262.659
 21
263.139
  0
LINE
  8
0
 10
148.879
 11
148.244
 20
263.139
 21
263.704
  0
LINE
  8
0
 10
148.244
 11
147.685
 20
263.704
 21
264.346
  0
LINE
  8
0
 10
147.685
 11
147.211
 20
264.346
 21
265.055
  0
LINE
  8
0
 10
147.211
 11
146.829
 20
265.055
 21
265.825
  0
LINE
  8
0
 10
146.829
 11
146.546
 20
265.825
 21
266.647
  0
LINE
  8
0
 10
146.546
 11
146.37
 20
266.647
 21
267.513
  0
LINE
  8
0
 10
146.37
 11
146.31
 20
267.513
 21
268.415
  0
LINE
  8
0
 10
147.106
 11
147.106
 20
83.043
 21
92.358
  0
LINE
  8
0
 10
147.106
 11
147.529
 20
92.358
 21
93.628
  0
LINE
  8
0
 10
147.529
 11
148.799
 20
93.628
 21
94.051
  0
LINE
  8
0
 10
148.799
 11
188.446
 20
94.051
 21
94.051
  0
LINE
  8
0
 10
188.446
 11
189.716
 20
94.051
 21
93.628
  0
LINE
  8
0
 10
189.716
 11
190.139
 20
93.628
 21
92.358
  0
LINE
  8
0
 10
190.139
 11
190.139
 20
92.358
 21
83.043
  0
LINE
  8
0
 10
190.139
 11
189.716
 20
83.043
 21
81.773
  0
LINE
  8
0
 10
189.716
 11
188.446
 20
81.773
 21
81.349
  0
LINE
  8
0
 10
188.446
 11
177.289
 20
81.349
 21
81.349
  0
LINE
  8
0
 10
177.289
 11
176.019
 20
81.349
 21
80.926
  0
LINE
  8
0
 10
176.019
 11
175.596
 20
80.926
 21
79.656
  0
LINE
  8
0
 10
175.596
 11
175.596
 20
79.656
 21
31.742
  0
LINE
  8
0
 10
175.596
 11
175.173
 20
31.742
 21
30.472
  0
LINE
  8
0
 10
175.173
 11
173.903
 20
30.472
 21
30.049
  0
LINE
  8
0
 10
173.903
 11
163.345
 20
30.049
 21
30.049
  0
LINE
  8
0
 10
163.345
 11
162.073
 20
30.049
 21
30.472
  0
LINE
  8
0
 10
162.073
 11
161.649
 20
30.472
 21
31.742
  0
LINE
  8
0
 10
161.649
 11
161.649
 20
31.742
 21
79.656
  0
LINE
  8
0
 10
161.649
 11
161.226
 20
79.656
 21
80.926
  0
LINE
  8
0
 10
161.226
 11
159.956
 20
80.926
 21
81.349
  0
LINE
  8
0
 10
159.956
 11
148.799
 20
81.349
 21
81.349
  0
LINE
  8
0
 10
148.799
 11
147.529
 20
81.349
 21
81.773
  0
LINE
  8
0
 10
147.529
 11
147.106
 20
81.773
 21
83.043
  0
LINE
  8
0
 10
196.533
 11
196.581
 20
337.081
 21
338.148
  0
LINE
  8
0
 10
196.581
 11
196.771
 20
338.148
 21
338.923
  0
LINE
  8
0
 10
196.771
 11
197.028
 20
338.923
 21
339.617
  0
LINE
  8
0
 10
197.028
 11
197.345
 20
339.617
 21
340.232
  0
LINE
  8
0
 10
197.345
 11
197.712
 20
340.232
 21
340.77
  0
LINE
  8
0
 10
197.712
 11
198.121
 20
340.77
 21
341.235
  0
LINE
  8
0
 10
198.121
 11
198.565
 20
341.235
 21
341.627
  0
LINE
  8
0
 10
198.565
 11
199.035
 20
341.627
 21
341.949
  0
LINE
  8
0
 10
199.035
 11
199.523
 20
341.949
 21
342.205
  0
LINE
  8
0
 10
199.523
 11
200.021
 20
342.205
 21
342.394
  0
LINE
  8
0
 10
200.021
 11
200.521
 20
342.394
 21
342.521
  0
LINE
  8
0
 10
200.521
 11
201.015
 20
342.521
 21
342.587
  0
LINE
  8
0
 10
201.015
 11
201.494
 20
342.587
 21
342.595
  0
LINE
  8
0
 10
201.494
 11
202.15
 20
342.595
 21
342.352
  0
LINE
  8
0
 10
202.15
 11
203.157
 20
342.352
 21
341.71
  0
LINE
  8
0
 10
203.157
 11
204.476
 20
341.71
 21
340.731
  0
LINE
  8
0
 10
204.476
 11
206.071
 20
340.731
 21
339.482
  0
LINE
  8
0
 10
206.071
 11
207.905
 20
339.482
 21
338.026
  0
LINE
  8
0
 10
207.905
 11
209.941
 20
338.026
 21
336.429
  0
LINE
  8
0
 10
209.941
 11
212.144
 20
336.429
 21
334.756
  0
LINE
  8
0
 10
212.144
 11
214.475
 20
334.756
 21
333.07
  0
LINE
  8
0
 10
214.475
 11
216.899
 20
333.07
 21
331.436
  0
LINE
  8
0
 10
216.899
 11
219.377
 20
331.436
 21
329.92
  0
LINE
  8
0
 10
219.377
 11
221.874
 20
329.92
 21
328.585
  0
LINE
  8
0
 10
221.874
 11
224.353
 20
328.585
 21
327.497
  0
LINE
  8
0
 10
224.353
 11
227.88
 20
327.497
 21
326.863
  0
LINE
  8
0
 10
227.88
 11
231.438
 20
326.863
 21
327.493
  0
LINE
  8
0
 10
231.438
 11
234.895
 20
327.493
 21
329.189
  0
LINE
  8
0
 10
234.895
 11
238.122
 20
329.189
 21
331.753
  0
LINE
  8
0
 10
238.122
 11
240.985
 20
331.753
 21
334.986
  0
LINE
  8
0
 10
240.985
 11
243.355
 20
334.986
 21
338.69
  0
LINE
  8
0
 10
243.355
 11
245.1
 20
338.69
 21
342.667
  0
LINE
  8
0
 10
245.1
 11
246.09
 20
342.667
 21
346.718
  0
LINE
  8
0
 10
246.09
 11
246.193
 20
346.718
 21
350.647
  0
LINE
  8
0
 10
246.193
 11
245.278
 20
350.647
 21
354.254
  0
LINE
  8
0
 10
245.278
 11
243.213
 20
354.254
 21
357.341
  0
LINE
  8
0
 10
243.213
 11
239.869
 20
357.341
 21
359.711
  0
LINE
  8
0
 10
239.869
 11
238.224
 20
359.711
 21
360.548
  0
LINE
  8
0
 10
238.224
 11
236.329
 20
360.548
 21
361.584
  0
LINE
  8
0
 10
236.329
 11
234.254
 20
361.584
 21
362.77
  0
LINE
  8
0
 10
234.254
 11
232.072
 20
362.77
 21
364.06
  0
LINE
  8
0
 10
232.072
 11
229.853
 20
364.06
 21
365.406
  0
LINE
  8
0
 10
229.853
 11
227.67
 20
365.406
 21
366.76
  0
LINE
  8
0
 10
227.67
 11
225.591
 20
366.76
 21
368.074
  0
LINE
  8
0
 10
225.591
 11
223.691
 20
368.074
 21
369.301
  0
LINE
  8
0
 10
223.691
 11
222.038
 20
369.301
 21
370.392
  0
LINE
  8
0
 10
222.038
 11
220.706
 20
370.392
 21
371.3
  0
LINE
  8
0
 10
220.706
 11
219.764
 20
371.3
 21
371.979
  0
LINE
  8
0
 10
219.764
 11
219.285
 20
371.979
 21
372.379
  0
LINE
  8
0
 10
219.285
 11
219.094
 20
372.379
 21
372.688
  0
LINE
  8
0
 10
219.094
 11
218.972
 20
372.688
 21
373.111
  0
LINE
  8
0
 10
218.972
 11
218.919
 20
373.111
 21
373.629
  0
LINE
  8
0
 10
218.919
 11
218.939
 20
373.629
 21
374.222
  0
LINE
  8
0
 10
218.939
 11
219.034
 20
374.222
 21
374.87
  0
LINE
  8
0
 10
219.034
 11
219.206
 20
374.87
 21
375.555
  0
LINE
  8
0
 10
219.206
 11
219.457
 20
375.555
 21
376.255
  0
LINE
  8
0
 10
219.457
 11
219.789
 20
376.255
 21
376.951
  0
LINE
  8
0
 10
219.789
 11
220.205
 20
376.951
 21
377.624
  0
LINE
  8
0
 10
220.205
 11
220.706
 20
377.624
 21
378.255
  0
LINE
  8
0
 10
220.706
 11
221.295
 20
378.255
 21
378.822
  0
LINE
  8
0
 10
221.295
 11
221.974
 20
378.822
 21
379.308
  0
LINE
  8
0
 10
221.974
 11
222.429
 20
379.308
 21
379.529
  0
LINE
  8
0
 10
222.429
 11
223.059
 20
379.529
 21
379.752
  0
LINE
  8
0
 10
223.059
 11
223.854
 20
379.752
 21
379.974
  0
LINE
  8
0
 10
223.854
 11
224.803
 20
379.974
 21
380.191
  0
LINE
  8
0
 10
224.803
 11
225.896
 20
380.191
 21
380.398
  0
LINE
  8
0
 10
225.896
 11
227.121
 20
380.398
 21
380.592
  0
LINE
  8
0
 10
227.121
 11
228.469
 20
380.592
 21
380.77
  0
LINE
  8
0
 10
228.469
 11
229.928
 20
380.77
 21
380.927
  0
LINE
  8
0
 10
229.928
 11
231.488
 20
380.927
 21
381.059
  0
LINE
  8
0
 10
231.488
 11
233.138
 20
381.059
 21
381.164
  0
LINE
  8
0
 10
233.138
 11
234.866
 20
381.164
 21
381.236
  0
LINE
  8
0
 10
234.866
 11
236.663
 20
381.236
 21
381.273
  0
LINE
  8
0
 10
236.663
 11
238.517
 20
381.273
 21
381.269
  0
LINE
  8
0
 10
238.517
 11
240.417
 20
381.269
 21
381.222
  0
LINE
  8
0
 10
240.417
 11
242.352
 20
381.222
 21
381.128
  0
LINE
  8
0
 10
242.352
 11
244.312
 20
381.128
 21
380.983
  0
LINE
  8
0
 10
244.312
 11
246.285
 20
380.983
 21
380.784
  0
LINE
  8
0
 10
246.285
 11
248.259
 20
380.784
 21
380.528
  0
LINE
  8
0
 10
248.259
 11
250.224
 20
380.528
 21
380.211
  0
LINE
  8
0
 10
250.224
 11
252.169
 20
380.211
 21
379.831
  0
LINE
  8
0
 10
252.169
 11
254.082
 20
379.831
 21
379.383
  0
LINE
  8
0
 10
254.082
 11
255.953
 20
379.383
 21
378.864
  0
LINE
  8
0
 10
255.953
 11
257.77
 20
378.864
 21
378.271
  0
LINE
  8
0
 10
257.77
 11
259.522
 20
378.271
 21
377.601
  0
LINE
  8
0
 10
259.522
 11
265.86
 20
377.601
 21
374.355
  0
LINE
  8
0
 10
265.86
 11
270.818
 20
374.355
 21
370.559
  0
LINE
  8
0
 10
270.818
 11
274.556
 20
370.559
 21
366.345
  0
LINE
  8
0
 10
274.556
 11
277.23
 20
366.345
 21
361.84
  0
LINE
  8
0
 10
277.23
 11
278.999
 20
361.84
 21
357.175
  0
LINE
  8
0
 10
278.999
 11
280.02
 20
357.175
 21
352.48
  0
LINE
  8
0
 10
280.02
 11
280.451
 20
352.48
 21
347.883
  0
LINE
  8
0
 10
280.451
 11
280.45
 20
347.883
 21
343.514
  0
LINE
  8
0
 10
280.45
 11
280.174
 20
343.514
 21
339.503
  0
LINE
  8
0
 10
280.174
 11
279.782
 20
339.503
 21
335.978
  0
LINE
  8
0
 10
279.782
 11
279.431
 20
335.978
 21
333.071
  0
LINE
  8
0
 10
279.431
 11
279.279
 20
333.071
 21
330.909
  0
LINE
  8
0
 10
279.279
 11
279.279
 20
330.909
 21
232.561
  0
LINE
  8
0
 10
279.279
 11
279.242
 20
232.561
 21
231.464
  0
LINE
  8
0
 10
279.242
 11
279.133
 20
231.464
 21
230.377
  0
LINE
  8
0
 10
279.133
 11
278.954
 20
230.377
 21
229.305
  0
LINE
  8
0
 10
278.954
 11
278.707
 20
229.305
 21
228.249
  0
LINE
  8
0
 10
278.707
 11
278.391
 20
228.249
 21
227.214
  0
LINE
  8
0
 10
278.391
 11
278.01
 20
227.214
 21
226.203
  0
LINE
  8
0
 10
278.01
 11
277.563
 20
226.203
 21
225.219
  0
LINE
  8
0
 10
277.563
 11
277.053
 20
225.219
 21
224.265
  0
LINE
  8
0
 10
277.053
 11
276.481
 20
224.265
 21
223.344
  0
LINE
  8
0
 10
276.481
 11
275.848
 20
223.344
 21
222.46
  0
LINE
  8
0
 10
275.848
 11
275.155
 20
222.46
 21
221.615
  0
LINE
  8
0
 10
275.155
 11
274.405
 20
221.615
 21
220.814
  0
LINE
  8
0
 10
274.405
 11
273.603
 20
220.814
 21
220.064
  0
LINE
  8
0
 10
273.603
 11
272.757
 20
220.064
 21
219.372
  0
LINE
  8
0
 10
272.757
 11
271.873
 20
219.372
 21
218.739
  0
LINE
  8
0
 10
271.873
 11
270.951
 20
218.739
 21
218.168
  0
LINE
  8
0
 10
270.951
 11
269.997
 20
218.168
 21
217.659
  0
LINE
  8
0
 10
269.997
 11
269.012
 20
217.659
 21
217.213
  0
LINE
  8
0
 10
269.012
 11
268
 20
217.213
 21
216.832
  0
LINE
  8
0
 10
268
 11
266.965
 20
216.832
 21
216.518
  0
LINE
  8
0
 10
266.965
 11
265.909
 20
216.518
 21
216.271
  0
LINE
  8
0
 10
265.909
 11
264.836
 20
216.271
 21
216.093
  0
LINE
  8
0
 10
264.836
 11
263.749
 20
216.093
 21
215.985
  0
LINE
  8
0
 10
263.749
 11
262.651
 20
215.985
 21
215.949
  0
LINE
  8
0
 10
262.651
 11
261.554
 20
215.949
 21
215.985
  0
LINE
  8
0
 10
261.554
 11
260.467
 20
215.985
 21
216.093
  0
LINE
  8
0
 10
260.467
 11
259.394
 20
216.093
 21
216.271
  0
LINE
  8
0
 10
259.394
 11
258.338
 20
216.271
 21
216.518
  0
LINE
  8
0
 10
258.338
 11
257.302
 20
216.518
 21
216.832
  0
LINE
  8
0
 10
257.302
 11
256.291
 20
216.832
 21
217.213
  0
LINE
  8
0
 10
256.291
 11
255.306
 20
217.213
 21
217.659
  0
LINE
  8
0
 10
255.306
 11
254.351
 20
217.659
 21
218.168
  0
LINE
  8
0
 10
254.351
 11
253.43
 20
218.168
 21
218.739
  0
LINE
  8
0
 10
253.43
 11
252.545
 20
218.739
 21
219.372
  0
LINE
  8
0
 10
252.545
 11
251.7
 20
219.372
 21
220.064
  0
LINE
  8
0
 10
251.7
 11
250.898
 20
220.064
 21
220.814
  0
LINE
  8
0
 10
250.898
 11
250.147
 20
220.814
 21
221.615
  0
LINE
  8
0
 10
250.147
 11
249.454
 20
221.615
 21
222.46
  0
LINE
  8
0
 10
249.454
 11
248.821
 20
222.46
 21
223.344
  0
LINE
  8
0
 10
248.821
 11
248.249
 20
223.344
 21
224.265
  0
LINE
  8
0
 10
248.249
 11
247.739
 20
224.265
 21
225.219
  0
LINE
  8
0
 10
247.739
 11
247.292
 20
225.219
 21
226.203
  0
LINE
  8
0
 10
247.292
 11
246.911
 20
226.203
 21
227.214
  0
LINE
  8
0
 10
246.911
 11
246.596
 20
227.214
 21
228.249
  0
LINE
  8
0
 10
246.596
 11
246.348
 20
228.249
 21
229.305
  0
LINE
  8
0
 10
246.348
 11
246.169
 20
229.305
 21
230.377
  0
LINE
  8
0
 10
246.169
 11
246.06
 20
230.377
 21
231.464
  0
LINE
  8
0
 10
246.06
 11
246.024
 20
231.464
 21
232.561
  0
LINE
  8
0
 10
246.024
 11
246.024
 20
232.561
 21
294.973
  0
LINE
  8
0
 10
246.024
 11
245.604
 20
294.973
 21
297.748
  0
LINE
  8
0
 10
245.604
 11
244.41
 20
297.748
 21
299.497
  0
LINE
  8
0
 10
244.41
 11
242.541
 20
299.497
 21
300.43
  0
LINE
  8
0
 10
242.541
 11
240.095
 20
300.43
 21
300.758
  0
LINE
  8
0
 10
240.095
 11
237.173
 20
300.758
 21
300.691
  0
LINE
  8
0
 10
237.173
 11
233.871
 20
300.691
 21
300.441
  0
LINE
  8
0
 10
233.871
 11
230.288
 20
300.441
 21
300.216
  0
LINE
  8
0
 10
230.288
 11
226.525
 20
300.216
 21
300.229
  0
LINE
  8
0
 10
226.525
 11
222.678
 20
300.229
 21
300.69
  0
LINE
  8
0
 10
222.678
 11
218.848
 20
300.69
 21
301.809
  0
LINE
  8
0
 10
218.848
 11
215.133
 20
301.809
 21
303.797
  0
LINE
  8
0
 10
215.133
 11
211.631
 20
303.797
 21
306.865
  0
LINE
  8
0
 10
211.631
 11
208.969
 20
306.865
 21
309.994
  0
LINE
  8
0
 10
208.969
 11
206.582
 20
309.994
 21
313.213
  0
LINE
  8
0
 10
206.582
 11
204.464
 20
313.213
 21
316.466
  0
LINE
  8
0
 10
204.464
 11
202.611
 20
316.466
 21
319.699
  0
LINE
  8
0
 10
202.611
 11
201.015
 20
319.699
 21
322.855
  0
LINE
  8
0
 10
201.015
 11
199.671
 20
322.855
 21
325.88
  0
LINE
  8
0
 10
199.671
 11
198.575
 20
325.88
 21
328.717
  0
LINE
  8
0
 10
198.575
 11
197.718
 20
328.717
 21
331.312
  0
LINE
  8
0
 10
197.718
 11
197.096
 20
331.312
 21
333.607
  0
LINE
  8
0
 10
197.096
 11
196.703
 20
333.607
 21
335.549
  0
LINE
  8
0
 10
196.703
 11
196.533
 20
335.549
 21
337.081
  0
LINE
  8
0
 10
198.108
 11
198.259
 20
30.847
 21
31.543
  0
LINE
  8
0
 10
198.259
 11
222.615
 20
31.543
 21
79.707
  0
LINE
  8
0
 10
222.615
 11
223.112
 20
79.707
 21
80.951
  0
LINE
  8
0
 10
223.112
 11
222.775
 20
80.951
 21
81.737
  0
LINE
  8
0
 10
222.775
 11
221.768
 20
81.737
 21
81.997
  0
LINE
  8
0
 10
221.768
 11
201.495
 20
81.997
 21
81.997
  0
LINE
  8
0
 10
201.495
 11
200.225
 20
81.997
 21
82.42
  0
LINE
  8
0
 10
200.225
 11
199.801
 20
82.42
 21
83.69
  0
LINE
  8
0
 10
199.801
 11
199.801
 20
83.69
 21
92.855
  0
LINE
  8
0
 10
199.801
 11
200.225
 20
92.855
 21
94.125
  0
LINE
  8
0
 10
200.225
 11
201.495
 20
94.125
 21
94.549
  0
LINE
  8
0
 10
201.495
 11
243.883
 20
94.549
 21
94.549
  0
LINE
  8
0
 10
243.883
 11
245.028
 20
94.549
 21
93.603
  0
LINE
  8
0
 10
245.028
 11
244.63
 20
93.603
 21
92.506
  0
LINE
  8
0
 10
244.63
 11
220.723
 20
92.506
 21
45.339
  0
LINE
  8
0
 10
220.723
 11
219.924
 20
45.339
 21
43.646
  0
LINE
  8
0
 10
219.924
 11
221.268
 20
43.646
 21
42.751
  0
LINE
  8
0
 10
221.268
 11
242.786
 20
42.751
 21
42.751
  0
LINE
  8
0
 10
242.786
 11
244.056
 20
42.751
 21
42.327
  0
LINE
  8
0
 10
244.056
 11
244.479
 20
42.327
 21
41.058
  0
LINE
  8
0
 10
244.479
 11
244.479
 20
41.058
 21
31.742
  0
LINE
  8
0
 10
244.479
 11
244.056
 20
31.742
 21
30.472
  0
LINE
  8
0
 10
244.056
 11
242.786
 20
30.472
 21
30.049
  0
LINE
  8
0
 10
242.786
 11
199.154
 20
30.049
 21
30.049
  0
LINE
  8
0
 10
199.154
 11
198.409
 20
30.049
 21
30.299
  0
LINE
  8
0
 10
198.409
 11
198.108
 20
30.299
 21
30.847
  0
LINE
  8
0
 10
254.091
 11
254.937
 20
44.99
 21
46.038
  0
LINE
  8
0
 10
254.937
 11
264.003
 20
46.038
 21
49.325
  0
LINE
  8
0
 10
264.003
 11
264.75
 20
49.325
 21
49.473
  0
LINE
  8
0
 10
264.75
 11
266.296
 20
49.473
 21
48.328
  0
LINE
  8
0
 10
266.296
 11
267.627
 20
48.328
 21
45.849
  0
LINE
  8
0
 10
267.627
 11
269.929
 20
45.849
 21
43.697
  0
LINE
  8
0
 10
269.929
 11
272.905
 20
43.697
 21
42.238
  0
LINE
  8
0
 10
272.905
 11
276.256
 20
42.238
 21
41.754
  0
LINE
  8
0
 10
276.256
 11
277.353
 20
41.754
 21
41.754
  0
LINE
  8
0
 10
277.353
 11
281.086
 20
41.754
 21
42.302
  0
LINE
  8
0
 10
281.086
 11
284.026
 20
42.302
 21
43.944
  0
LINE
  8
0
 10
284.026
 11
285.931
 20
43.944
 21
46.436
  0
LINE
  8
0
 10
285.931
 11
286.566
 20
46.436
 21
49.424
  0
LINE
  8
0
 10
286.566
 11
285.906
 20
49.424
 21
52.487
  0
LINE
  8
0
 10
285.906
 11
283.927
 20
52.487
 21
54.902
  0
LINE
  8
0
 10
283.927
 11
280.964
 20
54.902
 21
56.547
  0
LINE
  8
0
 10
280.964
 11
277.251
 20
56.547
 21
57.195
  0
LINE
  8
0
 10
277.251
 11
270.827
 20
57.195
 21
57.442
  0
LINE
  8
0
 10
270.827
 11
269.557
 20
57.442
 21
57.916
  0
LINE
  8
0
 10
269.557
 11
269.134
 20
57.916
 21
59.135
  0
LINE
  8
0
 10
269.134
 11
269.134
 20
59.135
 21
66.459
  0
LINE
  8
0
 10
269.134
 11
269.557
 20
66.459
 21
67.678
  0
LINE
  8
0
 10
269.557
 11
270.827
 20
67.678
 21
68.152
  0
LINE
  8
0
 10
270.827
 11
277.251
 20
68.152
 21
68.4
  0
LINE
  8
0
 10
277.251
 11
280.913
 20
68.4
 21
68.948
  0
LINE
  8
0
 10
280.913
 11
283.626
 20
68.948
 21
70.292
  0
LINE
  8
0
 10
283.626
 11
285.309
 20
70.292
 21
72.434
  0
LINE
  8
0
 10
285.309
 11
285.868
 20
72.434
 21
75.275
  0
LINE
  8
0
 10
285.868
 11
285.22
 20
75.275
 21
77.988
  0
LINE
  8
0
 10
285.22
 11
283.279
 20
77.988
 21
80.255
  0
LINE
  8
0
 10
283.279
 11
280.278
 20
80.255
 21
81.824
  0
LINE
  8
0
 10
280.278
 11
276.356
 20
81.824
 21
82.346
  0
LINE
  8
0
 10
276.356
 11
275.211
 20
82.346
 21
82.346
  0
LINE
  8
0
 10
275.211
 11
272.27
 20
82.346
 21
81.872
  0
LINE
  8
0
 10
272.27
 11
269.631
 20
81.872
 21
80.454
  0
LINE
  8
0
 10
269.631
 11
267.578
 20
80.454
 21
78.363
  0
LINE
  8
0
 10
267.578
 11
266.296
 20
78.363
 21
75.772
  0
LINE
  8
0
 10
266.296
 11
264.75
 20
75.772
 21
74.627
  0
LINE
  8
0
 10
264.75
 11
264.003
 20
74.627
 21
74.775
  0
LINE
  8
0
 10
264.003
 11
254.937
 20
74.775
 21
78.062
  0
LINE
  8
0
 10
254.937
 11
254.091
 20
78.062
 21
79.11
  0
LINE
  8
0
 10
254.091
 11
254.392
 20
79.11
 21
80.602
  0
LINE
  8
0
 10
254.392
 11
257.217
 20
80.602
 21
86.419
  0
LINE
  8
0
 10
257.217
 11
262.011
 20
86.419
 21
91.012
  0
LINE
  8
0
 10
262.011
 11
268.223
 20
91.012
 21
94.039
  0
LINE
  8
0
 10
268.223
 11
275.211
 20
94.039
 21
95.048
  0
LINE
  8
0
 10
275.211
 11
276.356
 20
95.048
 21
95.048
  0
LINE
  8
0
 10
276.356
 11
285.656
 20
95.048
 21
93.753
  0
LINE
  8
0
 10
285.656
 11
289.514
 20
93.753
 21
92.134
  0
LINE
  8
0
 10
289.514
 11
292.842
 20
92.134
 21
89.867
  0
LINE
  8
0
 10
292.842
 11
295.522
 20
89.867
 21
87.11
  0
LINE
  8
0
 10
295.522
 11
297.437
 20
87.11
 21
84.014
  0
LINE
  8
0
 10
297.437
 11
298.585
 20
84.014
 21
80.584
  0
LINE
  8
0
 10
298.585
 11
298.968
 20
80.584
 21
76.818
  0
LINE
  8
0
 10
298.968
 11
298.483
 20
76.818
 21
72.447
  0
LINE
  8
0
 10
298.483
 11
297.024
 20
72.447
 21
68.698
  0
LINE
  8
0
 10
297.024
 11
294.734
 20
68.698
 21
65.773
  0
LINE
  8
0
 10
294.734
 11
291.646
 20
65.773
 21
63.868
  0
LINE
  8
0
 10
291.646
 11
291.049
 20
63.868
 21
63.172
  0
LINE
  8
0
 10
291.049
 11
291.646
 20
63.172
 21
62.473
  0
LINE
  8
0
 10
291.646
 11
295.058
 20
62.473
 21
60.296
  0
LINE
  8
0
 10
295.058
 11
297.624
 20
60.296
 21
57.144
  0
LINE
  8
0
 10
297.624
 11
299.266
 20
57.144
 21
53.16
  0
LINE
  8
0
 10
299.266
 11
299.814
 20
53.16
 21
48.478
  0
LINE
  8
0
 10
299.814
 11
299.437
 20
48.478
 21
44.368
  0
LINE
  8
0
 10
299.437
 11
298.307
 20
44.368
 21
40.657
  0
LINE
  8
0
 10
298.307
 11
296.425
 20
40.657
 21
37.347
  0
LINE
  8
0
 10
296.425
 11
293.788
 20
37.347
 21
34.432
  0
LINE
  8
0
 10
293.788
 11
290.514
 20
34.432
 21
32.079
  0
LINE
  8
0
 10
290.514
 11
286.666
 20
32.079
 21
30.398
  0
LINE
  8
0
 10
286.666
 11
277.251
 20
30.398
 21
29.054
  0
LINE
  8
0
 10
277.251
 11
276.205
 20
29.054
 21
29.052
  0
LINE
  8
0
 10
276.205
 11
269.034
 20
29.052
 21
30.061
  0
LINE
  8
0
 10
269.034
 11
262.46
 20
30.061
 21
33.088
  0
LINE
  8
0
 10
262.46
 11
257.304
 20
33.088
 21
37.732
  0
LINE
  8
0
 10
257.304
 11
254.392
 20
37.732
 21
43.498
  0
LINE
  8
0
 10
254.392
 11
254.091
 20
43.498
 21
44.99
  0
LINE
  8
0
 10
309.874
 11
310.264
 20
73.63
 21
78.304
  0
LINE
  8
0
 10
310.264
 11
311.432
 20
78.304
 21
82.471
  0
LINE
  8
0
 10
311.432
 11
313.378
 20
82.471
 21
86.126
  0
LINE
  8
0
 10
313.378
 11
316.102
 20
86.126
 21
89.27
  0
LINE
  8
0
 10
316.102
 11
319.526
 20
89.27
 21
91.797
  0
LINE
  8
0
 10
319.526
 11
323.522
 20
91.797
 21
93.603
  0
LINE
  8
0
 10
323.522
 11
328.092
 20
93.603
 21
94.686
  0
LINE
  8
0
 10
328.092
 11
333.236
 20
94.686
 21
95.046
  0
LINE
  8
0
 10
333.236
 11
334.381
 20
95.046
 21
95.046
  0
LINE
  8
0
 10
334.381
 11
339.461
 20
95.046
 21
94.679
  0
LINE
  8
0
 10
339.461
 11
343.992
 20
94.679
 21
93.577
  0
LINE
  8
0
 10
343.992
 11
347.978
 20
93.577
 21
91.741
  0
LINE
  8
0
 10
347.978
 11
351.416
 20
91.741
 21
89.17
  0
LINE
  8
0
 10
351.416
 11
354.182
 20
89.17
 21
85.96
  0
LINE
  8
0
 10
354.182
 11
356.159
 20
85.96
 21
82.16
  0
LINE
  8
0
 10
356.159
 11
357.345
 20
82.16
 21
77.766
  0
LINE
  8
0
 10
357.345
 11
357.74
 20
77.766
 21
72.783
  0
LINE
  8
0
 10
357.74
 11
357.74
 20
72.783
 21
52.214
  0
LINE
  8
0
 10
357.74
 11
357.347
 20
52.214
 21
46.997
  0
LINE
  8
0
 10
357.347
 11
356.172
 20
46.997
 21
42.401
  0
LINE
  8
0
 10
356.172
 11
354.21
 20
42.401
 21
38.428
  0
LINE
  8
0
 10
354.21
 11
351.464
 20
38.428
 21
35.08
  0
LINE
  8
0
 10
351.464
 11
348.062
 20
35.08
 21
32.443
  0
LINE
  8
0
 10
348.062
 11
344.081
 20
32.443
 21
30.559
  0
LINE
  8
0
 10
344.081
 11
339.519
 20
30.559
 21
29.429
  0
LINE
  8
0
 10
339.519
 11
334.381
 20
29.429
 21
29.052
  0
LINE
  8
0
 10
334.381
 11
333.236
 20
29.052
 21
29.052
  0
LINE
  8
0
 10
333.236
 11
327.072
 20
29.052
 21
29.812
  0
LINE
  8
0
 10
327.072
 11
321.332
 20
29.812
 21
32.091
  0
LINE
  8
0
 10
321.332
 11
316.451
 20
32.091
 21
35.764
  0
LINE
  8
0
 10
316.451
 11
312.863
 20
35.764
 21
40.609
  0
LINE
  8
0
 10
312.863
 11
312.616
 20
40.609
 21
41.157
  0
LINE
  8
0
 10
312.616
 11
313.411
 20
41.157
 21
41.953
  0
LINE
  8
0
 10
313.411
 11
322.426
 20
41.953
 21
45.887
  0
LINE
  8
0
 10
322.426
 11
323.821
 20
45.887
 21
46.436
  0
LINE
  8
0
 10
323.821
 11
324.718
 20
46.436
 21
45.689
  0
LINE
  8
0
 10
324.718
 11
328.253
 20
45.689
 21
42.751
  0
LINE
  8
0
 10
328.253
 11
333.236
 20
42.751
 21
41.754
  0
LINE
  8
0
 10
333.236
 11
334.381
 20
41.754
 21
41.754
  0
LINE
  8
0
 10
334.381
 11
338.079
 20
41.754
 21
42.376
  0
LINE
  8
0
 10
338.079
 11
341.105
 20
42.376
 21
44.245
  0
LINE
  8
0
 10
341.105
 11
343.123
 20
44.245
 21
47.295
  0
LINE
  8
0
 10
343.123
 11
343.793
 20
47.295
 21
51.365
  0
LINE
  8
0
 10
343.793
 11
343.793
 20
51.365
 21
56.348
  0
LINE
  8
0
 10
343.793
 11
343.344
 20
56.348
 21
57.394
  0
LINE
  8
0
 10
343.344
 11
342.299
 20
57.394
 21
57.243
  0
LINE
  8
0
 10
342.299
 11
337.716
 20
57.243
 21
54.854
  0
LINE
  8
0
 10
337.716
 11
332.338
 20
54.854
 21
53.857
  0
LINE
  8
0
 10
332.338
 11
331.242
 20
53.857
 21
53.857
  0
LINE
  8
0
 10
331.242
 11
322.625
 20
53.857
 21
55.165
  0
LINE
  8
0
 10
322.625
 11
318.991
 20
55.165
 21
56.799
  0
LINE
  8
0
 10
318.991
 11
315.803
 20
56.799
 21
59.087
  0
LINE
  8
0
 10
315.803
 11
313.21
 20
59.087
 21
61.956
  0
LINE
  8
0
 10
313.21
 11
311.356
 20
61.956
 21
65.337
  0
LINE
  8
0
 10
311.356
 11
310.247
 20
65.337
 21
69.229
  0
LINE
  8
0
 10
310.247
 11
309.874
 20
69.229
 21
73.63
  0
LINE
  8
0
 10
323.821
 11
324.494
 20
73.63
 21
77.055
  0
LINE
  8
0
 10
324.494
 11
326.511
 20
77.055
 21
79.855
  0
LINE
  8
0
 10
326.511
 11
329.561
 20
79.855
 21
81.724
  0
LINE
  8
0
 10
329.561
 11
333.236
 20
81.724
 21
82.346
  0
LINE
  8
0
 10
333.236
 11
334.381
 20
82.346
 21
82.346
  0
LINE
  8
0
 10
334.381
 11
337.954
 20
82.346
 21
81.75
  0
LINE
  8
0
 10
337.954
 11
341.003
 20
81.75
 21
79.954
  0
LINE
  8
0
 10
341.003
 11
343.097
 20
79.954
 21
77.203
  0
LINE
  8
0
 10
343.097
 11
343.793
 20
77.203
 21
73.63
  0
LINE
  8
0
 10
343.793
 11
343.133
 20
73.63
 21
70.006
  0
LINE
  8
0
 10
343.133
 11
341.154
 20
70.006
 21
67.405
  0
LINE
  8
0
 10
341.154
 11
338.14
 20
67.405
 21
65.873
  0
LINE
  8
0
 10
338.14
 11
334.381
 20
65.873
 21
65.363
  0
LINE
  8
0
 10
334.381
 11
333.236
 20
65.363
 21
65.363
  0
LINE
  8
0
 10
333.236
 11
329.474
 20
65.363
 21
65.921
  0
LINE
  8
0
 10
329.474
 11
326.46
 20
65.921
 21
67.604
  0
LINE
  8
0
 10
326.46
 11
324.481
 20
67.604
 21
70.256
  0
LINE
  8
0
 10
324.481
 11
323.821
 20
70.256
 21
73.63
  0
LINE
  8
0
 10
365.5
 11
366.232
 20
10
 21
11.768
  0
LINE
  8
0
 10
366.232
 11
368
 20
11.768
 21
12.5
  0
LINE
  8
0
 10
368
 11
369.768
 20
12.5
 21
11.768
  0
LINE
  8
0
 10
369.768
 11
370.5
 20
11.768
 21
10
  0
LINE
  8
0
 10
370.5
 11
369.768
 20
10
 21
8.232
  0
LINE
  8
0
 10
369.768
 11
368
 20
8.232
 21
7.5
  0
LINE
  8
0
 10
368
 11
366.232
 20
7.5
 21
8.232
  0
LINE
  8
0
 10
366.232
 11
365.5
 20
8.232
 21
10
  0
LINE
  8
0
 10
365.5
 11
366.232
 20
478
 21
479.768
  0
LINE
  8
0
 10
366.232
 11
368
 20
479.768
 21
480.5
  0
LINE
  8
0
 10
368
 11
369.768
 20
480.5
 21
479.768
  0
LINE
  8
0
 10
369.768
 11
370.5
 20
479.768
 21
478
  0
LINE
  8
0
 10
370.5
 11
369.768
 20
478
 21
476.232
  0
LINE
  8
0
 10
369.768
 11
368
 20
476.232
 21
475.5
  0
LINE
  8
0
 10
368
 11
366.232
 20
475.5
 21
476.232
  0
LINE
  8
0
 10
366.232
 11
365.5
 20
476.232
 21
478
  0
ENDSEC
  0
SECTION
  2
OBJECTS
  0
DICTIONARY
  0
ENDSEC
  0
EOF
